<svg xmlns="http://www.w3.org/2000/svg" viewBox="0 0 24 24" role="img" aria-label="AkkiPDF">
  <rect width="24" height="24" rx="5.5" fill="#1a7f37" />
  <g transform="translate(2.6 1.4) scale(0.78)" fill="#ffffff">
    <path d="M6 2.75h9.19L19 6.56V19.25A2.25 2.25 0 0 1 16.75 21.5H6A2.25 2.25 0 0 1 3.75 19.25V5.25A2.25 2.25 0 0 1 6 2.75Z" opacity=".55" />
    <path d="M15.25 2.75V7a1.25 1.25 0 0 0 1.25 1.25H19.5L15.25 2.75Z" opacity=".8" />
    <path fill-rule="evenodd" d="M7.5 11.25a.75.75 0 0 1 .75-.75h6.5a.75.75 0 0 1 0 1.5H8.25a.75.75 0 0 1-.75-.75m0 3a.75.75 0 0 1 .75-.75h4.5a.75.75 0 0 1 0 1.5H8.25a.75.75 0 0 1-.75-.75" clip-rule="evenodd" />
    <path d="M16.72 14.03l3.25 3.25-1.94 1.94-3.25-3.25 1.94-1.94m.98-1.03 1.03-1.03a1.1 1.1 0 0 1 1.56 0l.22.22a1.1 1.1 0 0 1 0 1.56l-1.03 1.03-2.01-2.01Z" />
  </g>
</svg>
